<svg width="410" height="300" viewBox="0 0 410 300" fill="none" xmlns="http://www.w3.org/2000/svg">
<path d="M204.597 150.954L0.5 299.02V0.5H408.48L204.6 150.952L204.597 150.954ZM1.5407 299.5L204.894 151.974L408.458 299.5H1.5407ZM409.5 299.02L205.74 151.353L409.5 0.990363V299.02Z" fill="#C4C4C4" stroke="black"/>
<path d="M143.797 163H136.812L130.031 151.422V163H123.828V140.156H130.031V151.219L136.562 140.156H143.344L136.297 151.062L143.797 163ZM157.328 163L156.156 160.656H156.031C155.208 161.677 154.37 162.375 153.516 162.75C152.661 163.125 151.557 163.312 150.203 163.312C148.536 163.312 147.224 162.812 146.266 161.812C145.307 160.812 144.828 159.406 144.828 157.594C144.828 155.708 145.484 154.307 146.797 153.391C148.109 152.464 150.01 151.943 152.5 151.828L155.453 151.734V151.484C155.453 150.026 154.734 149.297 153.297 149.297C152.005 149.297 150.365 149.734 148.375 150.609L146.609 146.578C148.672 145.516 151.276 144.984 154.422 144.984C156.693 144.984 158.448 145.547 159.688 146.672C160.938 147.797 161.562 149.37 161.562 151.391V163H157.328ZM152.797 159C153.536 159 154.167 158.766 154.688 158.297C155.219 157.828 155.484 157.219 155.484 156.469V155.094L154.078 155.156C152.068 155.229 151.062 155.969 151.062 157.375C151.062 158.458 151.641 159 152.797 159ZM176.344 163.312C175.448 163.312 174.646 163.167 173.938 162.875C173.229 162.573 172.526 162.036 171.828 161.266H171.547C171.734 162.505 171.828 163.276 171.828 163.578V170.688H165.719V145.297H170.688L171.547 147.547H171.828C172.964 145.839 174.531 144.984 176.531 144.984C178.49 144.984 180.026 145.797 181.141 147.422C182.255 149.047 182.812 151.276 182.812 154.109C182.812 156.964 182.229 159.214 181.062 160.859C179.906 162.495 178.333 163.312 176.344 163.312ZM174.297 149.781C173.401 149.781 172.771 150.104 172.406 150.75C172.052 151.385 171.859 152.333 171.828 153.594V154.078C171.828 155.599 172.031 156.698 172.438 157.375C172.844 158.052 173.484 158.391 174.359 158.391C175.141 158.391 175.708 158.057 176.062 157.391C176.417 156.714 176.594 155.599 176.594 154.047C176.594 152.526 176.417 151.438 176.062 150.781C175.708 150.115 175.12 149.781 174.297 149.781ZM202.734 149.844H196.906V163H190.797V149.844H184.969V145.297H202.734V149.844ZM211.062 145.297V149.75C211.062 150 211.057 150.271 211.047 150.562C211.047 150.854 210.979 152.708 210.844 156.125L217.922 145.297H224.672V163H219.234V158.203C219.234 156.526 219.307 154.542 219.453 152.25L212.406 163H205.625V145.297H211.062ZM235.016 145.297V151.672H239.859V145.297H245.969V163H239.859V156.219H235.016V163H228.906V145.297H235.016ZM262.578 145.297H269.328L262.703 153.781L269.844 163H262.859L256.297 154.016V163H250.188V145.297H256.297V153.875L262.578 145.297ZM283.359 163L282.188 160.656H282.062C281.24 161.677 280.401 162.375 279.547 162.75C278.693 163.125 277.589 163.312 276.234 163.312C274.568 163.312 273.255 162.812 272.297 161.812C271.339 160.812 270.859 159.406 270.859 157.594C270.859 155.708 271.516 154.307 272.828 153.391C274.141 152.464 276.042 151.943 278.531 151.828L281.484 151.734V151.484C281.484 150.026 280.766 149.297 279.328 149.297C278.036 149.297 276.396 149.734 274.406 150.609L272.641 146.578C274.703 145.516 277.307 144.984 280.453 144.984C282.724 144.984 284.479 145.547 285.719 146.672C286.969 147.797 287.594 149.37 287.594 151.391V163H283.359ZM278.828 159C279.568 159 280.198 158.766 280.719 158.297C281.25 157.828 281.516 157.219 281.516 156.469V155.094L280.109 155.156C278.099 155.229 277.094 155.969 277.094 157.375C277.094 158.458 277.672 159 278.828 159Z" fill="#333333"/>
</svg>
